<svg xmlns="http://www.w3.org/2000/svg" width="2290.951" height="213.793" viewBox="0 0 2290.951 213.793">
  <g id="Group_1" data-name="Group 1" transform="translate(0 -247)">
    <rect id="Rectangle_1" data-name="Rectangle 1" width="59.036" height="213.793" transform="translate(0 247)"/>
    <rect id="Rectangle_5" data-name="Rectangle 5" width="59.036" height="213.793" transform="translate(236.145 247)"/>
    <rect id="Rectangle_2" data-name="Rectangle 2" width="59.036" height="213.793" transform="translate(59.036 247)" fill="#fff"/>
    <rect id="Rectangle_6" data-name="Rectangle 6" width="59.036" height="213.793" transform="translate(295.182 247)" fill="#fff"/>
    <rect id="Rectangle_3" data-name="Rectangle 3" width="59.036" height="213.793" transform="translate(118.073 247)"/>
    <rect id="Rectangle_7" data-name="Rectangle 7" width="59.036" height="213.793" transform="translate(354.218 247)"/>
    <rect id="Rectangle_9" data-name="Rectangle 9" width="59.036" height="213.793" transform="translate(472.291 247)"/>
    <rect id="Rectangle_4" data-name="Rectangle 4" width="59.036" height="213.793" transform="translate(177.109 247)" fill="#fff"/>
    <rect id="Rectangle_8" data-name="Rectangle 8" width="59.036" height="213.793" transform="translate(413.254 247)" fill="#fff"/>
    <rect id="Rectangle_10" data-name="Rectangle 10" width="59.036" height="213.793" transform="translate(531.327 247)" fill="#fff"/>
    <rect id="Rectangle_100" data-name="Rectangle 100" width="59.036" height="213.793" transform="translate(647.655 247)" fill="#fff"/>
    <rect id="Rectangle_11" data-name="Rectangle 11" width="59.036" height="213.793" transform="translate(590.132 247)"/>
    <rect id="Rectangle_72" data-name="Rectangle 72" width="59.036" height="213.793" transform="translate(704.564 247)"/>
    <rect id="Rectangle_73" data-name="Rectangle 73" width="59.036" height="213.793" transform="translate(940.709 247)"/>
    <rect id="Rectangle_74" data-name="Rectangle 74" width="59.036" height="213.793" transform="translate(763.6 247)" fill="#fff"/>
    <rect id="Rectangle_75" data-name="Rectangle 75" width="59.036" height="213.793" transform="translate(999.745 247)" fill="#fff"/>
    <rect id="Rectangle_76" data-name="Rectangle 76" width="59.036" height="213.793" transform="translate(822.636 247)"/>
    <rect id="Rectangle_77" data-name="Rectangle 77" width="59.036" height="213.793" transform="translate(1058.782 247)"/>
    <rect id="Rectangle_78" data-name="Rectangle 78" width="59.036" height="213.793" transform="translate(1176.855 247)"/>
    <rect id="Rectangle_79" data-name="Rectangle 79" width="59.036" height="213.793" transform="translate(881.673 247)" fill="#fff"/>
    <rect id="Rectangle_80" data-name="Rectangle 80" width="59.036" height="213.793" transform="translate(1117.818 247)" fill="#fff"/>
    <rect id="Rectangle_81" data-name="Rectangle 81" width="59.036" height="213.793" transform="translate(1235.891 247)" fill="#fff"/>
    <rect id="Rectangle_99" data-name="Rectangle 99" width="59.036" height="213.793" transform="translate(1354.008 247)" fill="#fff"/>
    <rect id="Rectangle_82" data-name="Rectangle 82" width="59.036" height="213.793" transform="translate(1294.695 247)"/>
    <rect id="Rectangle_83" data-name="Rectangle 83" width="59.036" height="213.793" transform="translate(1409.128 247)"/>
    <rect id="Rectangle_84" data-name="Rectangle 84" width="59.036" height="213.793" transform="translate(1645.273 247)"/>
    <rect id="Rectangle_85" data-name="Rectangle 85" width="59.036" height="213.793" transform="translate(1468.164 247)" fill="#fff"/>
    <rect id="Rectangle_86" data-name="Rectangle 86" width="59.036" height="213.793" transform="translate(1704.309 247)" fill="#fff"/>
    <rect id="Rectangle_87" data-name="Rectangle 87" width="59.036" height="213.793" transform="translate(1527.2 247)"/>
    <rect id="Rectangle_88" data-name="Rectangle 88" width="59.036" height="213.793" transform="translate(1763.345 247)"/>
    <rect id="Rectangle_89" data-name="Rectangle 89" width="59.036" height="213.793" transform="translate(1881.419 247)"/>
    <rect id="Rectangle_90" data-name="Rectangle 90" width="59.036" height="213.793" transform="translate(1586.237 247)" fill="#fff"/>
    <rect id="Rectangle_91" data-name="Rectangle 91" width="59.036" height="213.793" transform="translate(1822.382 247)" fill="#fff"/>
    <rect id="Rectangle_92" data-name="Rectangle 92" width="59.036" height="213.793" transform="translate(1940.455 247)" fill="#fff"/>
    <rect id="Rectangle_94" data-name="Rectangle 94" width="59.036" height="213.793" transform="translate(1940.455 247)" fill="#fff"/>
    <rect id="Rectangle_95" data-name="Rectangle 95" width="59.036" height="213.793" transform="translate(2172.424 247)" fill="#fff"/>
    <rect id="Rectangle_96" data-name="Rectangle 96" width="59.036" height="213.793" transform="translate(2057.886 247)" fill="#fff"/>
    <rect id="Rectangle_93" data-name="Rectangle 93" width="59.036" height="213.793" transform="translate(1999.259 247)"/>
    <rect id="Rectangle_101" data-name="Rectangle 101" width="59.036" height="213.793" transform="translate(2113.797 247)"/>
    <rect id="Rectangle_102" data-name="Rectangle 102" width="59.036" height="213.793" transform="translate(2231.915 247)"/>
  </g>
</svg>
